<?xml version="1.0" encoding="UTF-8"?>
<!DOCTYPE svg PUBLIC "-//W3C//DTD SVG 1.1//EN" "http://www.w3.org/Graphics/SVG/1.1/DTD/svg11.dtd">
<svg xmlns="http://www.w3.org/2000/svg" version="1.1" width="94px" height="94px" style="shape-rendering:geometricPrecision; text-rendering:geometricPrecision; image-rendering:optimizeQuality; fill-rule:evenodd; clip-rule:evenodd" xmlns:xlink="http://www.w3.org/1999/xlink">
<g><path style="opacity:0.008" fill="#808080" d="M 33.5,14.5 C 33.8966,13.475 34.5632,13.3083 35.5,14C 34.9056,14.4643 34.2389,14.631 33.5,14.5 Z"/></g>
<g><path style="opacity:0.012" fill="#808080" d="M 15.5,23.5 C 14.4265,22.7494 14.2599,21.7494 15,20.5C 15.4828,21.448 15.6495,22.448 15.5,23.5 Z"/></g>
<g><path style="opacity:1" fill="#808080" d="M 30.5,14.5 C 27.6146,14.1936 24.9479,14.5269 22.5,15.5C 21.5416,15.9528 20.7083,16.6195 20,17.5C 19.3658,20.5547 19.5325,23.5547 20.5,26.5C 20.5654,26.9382 20.3988,27.2716 20,27.5C 18.314,23.5521 16.814,23.5521 15.5,27.5C 15.5,26.1667 15.5,24.8333 15.5,23.5C 16.4798,19.7861 18.4798,16.6194 21.5,14C 24.6965,13.1955 27.6965,13.3622 30.5,14.5 Z"/></g>
<g><path style="opacity:1" fill="#808080" d="M 22.5,15.5 C 26.2343,15.3227 29.9009,15.6561 33.5,16.5C 31.9087,17.2189 30.4087,18.2189 29,19.5C 26.6552,23.1885 25.1552,27.1885 24.5,31.5C 22.9263,30.0158 21.593,28.3492 20.5,26.5C 19.5325,23.5547 19.3658,20.5547 20,17.5C 20.7083,16.6195 21.5416,15.9528 22.5,15.5 Z"/></g>
<g><path style="opacity:1" fill="#808080" d="M 36.5,17.5 C 38.6365,18.4026 40.6365,19.5693 42.5,21C 38.6199,24.3786 35.2866,28.2119 32.5,32.5C 30.7839,32.6287 29.1172,32.962 27.5,33.5C 27.3398,31.8008 27.5065,30.1341 28,28.5C 29.6918,23.8254 32.5252,20.1587 36.5,17.5 Z"/></g>
<g><path style="opacity:0.997" fill="#808080" d="M 22.5,15.5 C 24.9479,14.5269 27.6146,14.1936 30.5,14.5C 31.5,14.5 32.5,14.5 33.5,14.5C 37.9262,16.5482 42.2595,18.8816 46.5,21.5C 46.4142,22.4959 46.7476,23.3292 47.5,24C 43.3937,25.9324 39.3937,28.099 35.5,30.5C 34.7025,30.9569 34.3691,31.6236 34.5,32.5C 33.8333,32.5 33.1667,32.5 32.5,32.5C 35.2866,28.2119 38.6199,24.3786 42.5,21C 40.6365,19.5693 38.6365,18.4026 36.5,17.5C 35.391,17.4431 34.391,17.1098 33.5,16.5C 29.9009,15.6561 26.2343,15.3227 22.5,15.5 Z"/></g>
<g><path style="opacity:0.997" fill="#808080" d="M 46.5,21.5 C 47.5,22.1667 48.5,22.8333 49.5,23.5C 50.0398,27.269 48.7065,29.9357 45.5,31.5C 41.8212,31.7244 38.1545,32.0578 34.5,32.5C 34.3691,31.6236 34.7025,30.9569 35.5,30.5C 39.3937,28.099 43.3937,25.9324 47.5,24C 46.7476,23.3292 46.4142,22.4959 46.5,21.5 Z"/></g>
<g><path style="opacity:0.008" fill="#808080" d="M 13.5,24.5 C 14.5983,25.6009 14.765,26.9343 14,28.5C 13.51,27.2068 13.3433,25.8734 13.5,24.5 Z"/></g>
<g><path style="opacity:1" fill="#808080" d="M 33.5,16.5 C 34.391,17.1098 35.391,17.4431 36.5,17.5C 32.5252,20.1587 29.6918,23.8254 28,28.5C 27.5065,30.1341 27.3398,31.8008 27.5,33.5C 26.8333,33.5 26.1667,33.5 25.5,33.5C 24.6618,33.1583 24.3284,32.4916 24.5,31.5C 25.1552,27.1885 26.6552,23.1885 29,19.5C 30.4087,18.2189 31.9087,17.2189 33.5,16.5 Z"/></g>
<g><path style="opacity:0.004" fill="#808080" d="M 70.5,27.5 C 70.1667,27.5 69.8333,27.5 69.5,27.5C 69.8333,24.8333 70.1667,24.8333 70.5,27.5 Z"/></g>
<g><path style="opacity:0.996" fill="#808080" d="M 68.5,27.5 C 67.1805,26.0582 65.5138,25.3915 63.5,25.5C 63.67,26.8221 63.3366,27.9887 62.5,29C 59.6353,29.1829 56.9686,29.6829 54.5,30.5C 51.4824,30.7038 48.4824,31.0371 45.5,31.5C 48.7065,29.9357 50.0398,27.269 49.5,23.5C 50.8853,24.6138 52.3853,25.6138 54,26.5C 56.7071,22.9651 60.2071,21.7984 64.5,23C 66.751,23.7475 68.0844,25.2475 68.5,27.5 Z"/></g>
<g><path style="opacity:0.012" fill="#808080" d="M 70.5,27.5 C 71.6129,28.9464 71.7796,30.6131 71,32.5C 70.5065,30.8659 70.3398,29.1992 70.5,27.5 Z"/></g>
<g><path style="opacity:0.997" fill="#808080" d="M 20.5,26.5 C 21.593,28.3492 22.9263,30.0158 24.5,31.5C 24.3284,32.4916 24.6618,33.1583 25.5,33.5C 26.1098,34.391 26.4431,35.391 26.5,36.5C 23.27,32.6924 19.27,31.6924 14.5,33.5C 14.5172,31.4352 14.8505,29.4352 15.5,27.5C 16.814,23.5521 18.314,23.5521 20,27.5C 20.3988,27.2716 20.5654,26.9382 20.5,26.5 Z"/></g>
<g><path style="opacity:1" fill="#808080" d="M 68.5,27.5 C 68.8333,27.5 69.1667,27.5 69.5,27.5C 69.5,29.5 69.5,31.5 69.5,33.5C 68.6618,33.8417 68.3284,34.5084 68.5,35.5C 67.8333,35.8333 67.1667,36.1667 66.5,36.5C 66.5,35.1667 66.5,33.8333 66.5,32.5C 62.6403,32.8084 58.9736,33.4751 55.5,34.5C 49.3835,34.5152 43.3835,35.1818 37.5,36.5C 33.9651,37.0117 30.6318,37.0117 27.5,36.5C 36.2803,34.7664 45.2803,33.7664 54.5,33.5C 54.5,32.5 54.5,31.5 54.5,30.5C 56.9686,29.6829 59.6353,29.1829 62.5,29C 63.3366,27.9887 63.67,26.8221 63.5,25.5C 65.5138,25.3915 67.1805,26.0582 68.5,27.5 Z"/></g>
<g><path style="opacity:1" fill="#808080" d="M 54.5,30.5 C 54.5,31.5 54.5,32.5 54.5,33.5C 45.2803,33.7664 36.2803,34.7664 27.5,36.5C 27.1667,36.5 26.8333,36.5 26.5,36.5C 26.4431,35.391 26.1098,34.391 25.5,33.5C 26.1667,33.5 26.8333,33.5 27.5,33.5C 29.1172,32.962 30.7839,32.6287 32.5,32.5C 33.1667,32.5 33.8333,32.5 34.5,32.5C 38.1545,32.0578 41.8212,31.7244 45.5,31.5C 48.4824,31.0371 51.4824,30.7038 54.5,30.5 Z"/></g>
<g><path style="opacity:0.996" fill="#808080" d="M 26.5,36.5 C 26.5,36.8333 26.5,37.1667 26.5,37.5C 23.6505,37.6902 20.6505,38.3568 17.5,39.5C 17.3677,42.5701 17.701,45.5701 18.5,48.5C 18.5,49.5 18.5,50.5 18.5,51.5C 18.1667,51.5 17.8333,51.5 17.5,51.5C 17.7373,50.209 17.404,49.209 16.5,48.5C 16.7373,47.209 16.404,46.209 15.5,45.5C 15.1667,41.5 14.8333,37.5 14.5,33.5C 19.27,31.6924 23.27,32.6924 26.5,36.5 Z"/></g>
<g><path style="opacity:0.008" fill="#808080" d="M 69.5,33.5 C 70.8333,34.1667 70.8333,34.8333 69.5,35.5C 69.5,34.8333 69.5,34.1667 69.5,33.5 Z"/></g>
<g><path style="opacity:0.012" fill="#808080" d="M 68.5,35.5 C 68.8333,35.5 69.1667,35.5 69.5,35.5C 69.3147,36.1701 68.9813,36.1701 68.5,35.5 Z"/></g>
<g><path style="opacity:0.008" fill="#808080" d="M 12.5,29.5 C 13.6408,32.6399 13.8075,35.9733 13,39.5C 12.5017,36.1832 12.335,32.8499 12.5,29.5 Z"/></g>
<g><path style="opacity:1" fill="#808080" d="M 55.5,34.5 C 55.5,34.8333 55.5,35.1667 55.5,35.5C 52.1667,39.5 48.5,43.1667 44.5,46.5C 42.5286,45.1769 40.5286,43.8435 38.5,42.5C 37.5344,40.604 37.2011,38.604 37.5,36.5C 43.3835,35.1818 49.3835,34.5152 55.5,34.5 Z"/></g>
<g><path style="opacity:0.006" fill="#808080" d="M 13.5,40.5 C 14.5983,41.6009 14.765,42.9343 14,44.5C 13.51,43.2068 13.3433,41.8734 13.5,40.5 Z"/></g>
<g><path style="opacity:1" fill="#808080" d="M 26.5,36.5 C 26.8333,36.5 27.1667,36.5 27.5,36.5C 30.6318,37.0117 33.9651,37.0117 37.5,36.5C 37.2011,38.604 37.5344,40.604 38.5,42.5C 40.5286,43.8435 42.5286,45.1769 44.5,46.5C 42.0724,51.4687 39.0724,51.8021 35.5,47.5C 34.5,45.8333 33.1667,44.5 31.5,43.5C 29.8333,41.5 28.1667,39.5 26.5,37.5C 26.5,37.1667 26.5,36.8333 26.5,36.5 Z"/></g>
<g><path style="opacity:0.999" fill="#808080" d="M 26.5,37.5 C 28.1667,39.5 29.8333,41.5 31.5,43.5C 29.8561,43.7135 28.3561,43.3802 27,42.5C 25.2658,44.4506 23.0991,45.4506 20.5,45.5C 19.8333,46.5 19.1667,47.5 18.5,48.5C 17.701,45.5701 17.3677,42.5701 17.5,39.5C 20.6505,38.3568 23.6505,37.6902 26.5,37.5 Z"/></g>
<g><path style="opacity:0.998" fill="#808080" d="M 66.5,36.5 C 66.5,36.8333 66.5,37.1667 66.5,37.5C 67.1712,38.8471 67.1712,40.0138 66.5,41C 67.448,41.4828 68.448,41.6495 69.5,41.5C 70.422,45.8856 71.7554,50.0523 73.5,54C 72.4293,54.8518 71.4293,55.6851 70.5,56.5C 68.9755,55.8262 67.6422,54.8262 66.5,53.5C 65.914,53.7093 65.414,54.0426 65,54.5C 64.3333,53.1667 63.6667,51.8333 63,50.5C 62.6667,50.8333 62.3333,51.1667 62,51.5C 61.5065,49.8659 61.3398,48.1992 61.5,46.5C 61.5,43.5 61.5,40.5 61.5,37.5C 63.2161,37.3713 64.8828,37.038 66.5,36.5 Z"/></g>
<g><path style="opacity:1" fill="#808080" d="M 61.5,37.5 C 61.5,40.5 61.5,43.5 61.5,46.5C 60.5233,49.2869 60.19,52.2869 60.5,55.5C 59.8333,58.1667 59.1667,60.8333 58.5,63.5C 56.9731,63.573 55.9731,62.9063 55.5,61.5C 55.5563,55.2714 56.223,49.1047 57.5,43C 57.472,41.9302 57.1386,41.0968 56.5,40.5C 57.344,38.2407 59.0107,37.2407 61.5,37.5 Z"/></g>
<g><path style="opacity:0.012" fill="#808080" d="M 15.5,45.5 C 15.5,46.5 15.5,47.5 15.5,48.5C 14.1667,47.5 14.1667,46.5 15.5,45.5 Z"/></g>
<g><path style="opacity:1" fill="#808080" d="M 31.5,43.5 C 33.1667,44.5 34.5,45.8333 35.5,47.5C 31.0567,46.9798 29.0567,48.6465 29.5,52.5C 28.6618,52.8417 28.3284,53.5084 28.5,54.5C 26.8762,54.6399 25.7096,53.9733 25,52.5C 24.6667,52.8333 24.3333,53.1667 24,53.5C 23.7216,52.5842 23.2216,51.9175 22.5,51.5C 21.7148,49.6264 21.0482,47.6264 20.5,45.5C 23.0991,45.4506 25.2658,44.4506 27,42.5C 28.3561,43.3802 29.8561,43.7135 31.5,43.5 Z"/></g>
<g><path style="opacity:1" fill="#808080" d="M 66.5,36.5 C 64.8828,37.038 63.2161,37.3713 61.5,37.5C 59.0107,37.2407 57.344,38.2407 56.5,40.5C 52.1082,44.8972 47.4416,48.8972 42.5,52.5C 46.9756,47.6047 51.4756,42.6047 56,37.5C 56.6917,36.5632 56.525,35.8966 55.5,35.5C 55.5,35.1667 55.5,34.8333 55.5,34.5C 58.9736,33.4751 62.6403,32.8084 66.5,32.5C 66.5,33.8333 66.5,35.1667 66.5,36.5 Z"/></g>
<g><path style="opacity:0.012" fill="#808080" d="M 77.5,47.5 C 78.8333,48.1667 78.8333,48.1667 77.5,47.5 Z"/></g>
<g><path style="opacity:0.016" fill="#808080" d="M 15.5,48.5 C 15.8333,48.5 16.1667,48.5 16.5,48.5C 16.5,49.5 16.5,50.5 16.5,51.5C 15.596,50.791 15.2627,49.791 15.5,48.5 Z"/></g>
<g><path style="opacity:1" fill="#808080" d="M 56.5,40.5 C 57.1386,41.0968 57.472,41.9302 57.5,43C 56.223,49.1047 55.5563,55.2714 55.5,61.5C 53.7162,61.1075 52.0495,60.4408 50.5,59.5C 47.8333,57.1667 45.1667,54.8333 42.5,52.5C 47.4416,48.8972 52.1082,44.8972 56.5,40.5 Z"/></g>
<g><path style="opacity:1" fill="#808080" d="M 61.5,46.5 C 61.3398,48.1992 61.5065,49.8659 62,51.5C 62.3333,51.1667 62.6667,50.8333 63,50.5C 63.6667,51.8333 64.3333,53.1667 65,54.5C 65.414,54.0426 65.914,53.7093 66.5,53.5C 67.6422,54.8262 68.9755,55.8262 70.5,56.5C 72.2161,56.3713 73.8828,56.038 75.5,55.5C 75.5,56.5 75.5,57.5 75.5,58.5C 72.4299,58.3677 69.4299,58.701 66.5,59.5C 64.7354,58.5386 62.7354,58.2053 60.5,58.5C 60.5,57.5 60.5,56.5 60.5,55.5C 60.19,52.2869 60.5233,49.2869 61.5,46.5 Z"/></g>
<g><path style="opacity:0.998" fill="#808080" d="M 66.5,37.5 C 70.3946,40.973 74.0613,44.6396 77.5,48.5C 77.5,49.1667 77.5,49.8333 77.5,50.5C 76.8333,52.1667 76.1667,53.8333 75.5,55.5C 73.8828,56.038 72.2161,56.3713 70.5,56.5C 71.4293,55.6851 72.4293,54.8518 73.5,54C 71.7554,50.0523 70.422,45.8856 69.5,41.5C 68.448,41.6495 67.448,41.4828 66.5,41C 67.1712,40.0138 67.1712,38.8471 66.5,37.5 Z"/></g>
<g><path style="opacity:0.008" fill="#808080" d="M 16.5,51.5 C 16.8333,51.5 17.1667,51.5 17.5,51.5C 17.1667,54.1667 16.8333,54.1667 16.5,51.5 Z"/></g>
<g><path style="opacity:0.012" fill="#808080" d="M 18.5,55.5 C 17.8333,54.1667 17.8333,54.1667 18.5,55.5 Z"/></g>
<g><path style="opacity:1" fill="#808080" d="M 55.5,35.5 C 56.525,35.8966 56.6917,36.5632 56,37.5C 51.4756,42.6047 46.9756,47.6047 42.5,52.5C 45.1667,54.8333 47.8333,57.1667 50.5,59.5C 47.7908,58.9866 45.2908,57.9866 43,56.5C 42.2352,56.5699 41.7352,56.9033 41.5,57.5C 39.442,58.824 37.7753,58.324 36.5,56C 37.5256,53.5355 36.6923,51.7022 34,50.5C 32.5295,51.2666 31.0295,51.9332 29.5,52.5C 29.0567,48.6465 31.0567,46.9798 35.5,47.5C 39.0724,51.8021 42.0724,51.4687 44.5,46.5C 48.5,43.1667 52.1667,39.5 55.5,35.5 Z"/></g>
<g><path style="opacity:1" fill="#808080" d="M 41.5,57.5 C 41.9175,58.2216 42.5842,58.7216 43.5,59C 42.376,59.2492 41.376,59.7492 40.5,60.5C 44.2197,62.5886 47.8864,64.5886 51.5,66.5C 45.5131,65.0085 39.8464,62.6752 34.5,59.5C 31.8652,58.4608 29.8652,56.7941 28.5,54.5C 28.3284,53.5084 28.6618,52.8417 29.5,52.5C 31.0295,51.9332 32.5295,51.2666 34,50.5C 36.6923,51.7022 37.5256,53.5355 36.5,56C 37.7753,58.324 39.442,58.824 41.5,57.5 Z"/></g>
<g><path style="opacity:0.004" fill="#808080" d="M 18.5,55.5 C 18.8333,55.5 19.1667,55.5 19.5,55.5C 19.5,56.1667 19.5,56.8333 19.5,57.5C 18.6618,57.1583 18.3284,56.4916 18.5,55.5 Z"/></g>
<g><path style="opacity:0.004" fill="#808080" d="M 19.5,57.5 C 19.8333,57.5 20.1667,57.5 20.5,57.5C 20.1667,60.1667 19.8333,60.1667 19.5,57.5 Z"/></g>
<g><path style="opacity:0.008" fill="#808080" d="M 83.5,59.5 C 83.369,58.7611 83.5357,58.0944 84,57.5C 84.6917,58.4368 84.525,59.1034 83.5,59.5 Z"/></g>
<g><path style="opacity:1" fill="#808080" d="M 34.5,59.5 C 39.8464,62.6752 45.5131,65.0085 51.5,66.5C 56.4817,67.2318 61.4817,67.8985 66.5,68.5C 68.403,68.7959 70.0697,69.4625 71.5,70.5C 70.1667,70.5 68.8333,70.5 67.5,70.5C 56.6133,70.9752 46.28,68.6418 36.5,63.5C 35.3263,62.4863 34.6596,61.153 34.5,59.5 Z"/></g>
<g><path style="opacity:1" fill="#808080" d="M 50.5,59.5 C 52.0495,60.4408 53.7162,61.1075 55.5,61.5C 55.9731,62.9063 56.9731,63.573 58.5,63.5C 61.1667,65.1667 63.8333,66.8333 66.5,68.5C 61.4817,67.8985 56.4817,67.2318 51.5,66.5C 47.8864,64.5886 44.2197,62.5886 40.5,60.5C 41.376,59.7492 42.376,59.2492 43.5,59C 42.5842,58.7216 41.9175,58.2216 41.5,57.5C 41.7352,56.9033 42.2352,56.5699 43,56.5C 45.2908,57.9866 47.7908,58.9866 50.5,59.5 Z"/></g>
<g><path style="opacity:1" fill="#808080" d="M 77.5,50.5 C 79.7481,53.328 81.7481,56.328 83.5,59.5C 83.5,61.8333 83.5,64.1667 83.5,66.5C 82.8525,64.5018 82.0192,62.5018 81,60.5C 76.0027,61.6847 71.1694,61.3514 66.5,59.5C 69.4299,58.701 72.4299,58.3677 75.5,58.5C 75.5,57.5 75.5,56.5 75.5,55.5C 76.1667,53.8333 76.8333,52.1667 77.5,50.5 Z"/></g>
<g><path style="opacity:0.999" fill="#808080" d="M 22.5,51.5 C 23.2216,51.9175 23.7216,52.5842 24,53.5C 24.3333,53.1667 24.6667,52.8333 25,52.5C 25.7096,53.9733 26.8762,54.6399 28.5,54.5C 29.8652,56.7941 31.8652,58.4608 34.5,59.5C 34.6596,61.153 35.3263,62.4863 36.5,63.5C 34.0521,64.4731 31.3854,64.8064 28.5,64.5C 28.9175,63.7784 29.5842,63.2784 30.5,63C 28.3443,59.9026 25.8443,57.0693 23,54.5C 22.5172,53.552 22.3505,52.552 22.5,51.5 Z"/></g>
<g><path style="opacity:1" fill="#808080" d="M 60.5,58.5 C 62.7354,58.2053 64.7354,58.5386 66.5,59.5C 71.1694,61.3514 76.0027,61.6847 81,60.5C 82.0192,62.5018 82.8525,64.5018 83.5,66.5C 82.8902,67.391 82.5569,68.391 82.5,69.5C 82.1667,69.5 81.8333,69.5 81.5,69.5C 80.5,69.5 79.5,69.5 78.5,69.5C 73.5325,69.1341 73.8658,68.6341 79.5,68C 78.6198,66.6439 78.2865,65.1439 78.5,63.5C 71.8769,63.8343 65.8769,62.1676 60.5,58.5 Z"/></g>
<g><path style="opacity:0.004" fill="#808080" d="M 23.5,61.5 C 23.5,62.1667 23.8333,62.5 24.5,62.5C 24.5,63.1667 24.8333,63.5 25.5,63.5C 25.5,63.8333 25.5,64.1667 25.5,64.5C 24.8333,64.5 24.5,64.8333 24.5,65.5C 22.8624,64.2954 22.5291,62.9621 23.5,61.5 Z"/></g>
<g><path style="opacity:0.984" fill="#808080" d="M 20.5,45.5 C 21.0482,47.6264 21.7148,49.6264 22.5,51.5C 22.3505,52.552 22.5172,53.552 23,54.5C 25.8443,57.0693 28.3443,59.9026 30.5,63C 29.5842,63.2784 28.9175,63.7784 28.5,64.5C 28.5,64.8333 28.5,65.1667 28.5,65.5C 28.5,66.1667 28.5,66.8333 28.5,67.5C 27.8333,66.5 27.1667,65.5 26.5,64.5C 26.5,63.8333 26.1667,63.5 25.5,63.5C 24.8333,63.5 24.5,63.1667 24.5,62.5C 23.8333,62.5 23.5,62.1667 23.5,61.5C 22.4884,60.1283 21.4884,58.795 20.5,57.5C 20.6716,56.5084 20.3382,55.8417 19.5,55.5C 19.1667,54.1667 18.8333,52.8333 18.5,51.5C 18.5,50.5 18.5,49.5 18.5,48.5C 19.1667,47.5 19.8333,46.5 20.5,45.5 Z"/></g>
<g><path style="opacity:0.012" fill="#808080" d="M 84.5,60.5 C 85.6291,62.6282 85.7958,64.9615 85,67.5C 84.5034,65.1902 84.3367,62.8568 84.5,60.5 Z"/></g>
<g><path style="opacity:1" fill="#808080" d="M 60.5,55.5 C 60.5,56.5 60.5,57.5 60.5,58.5C 65.8769,62.1676 71.8769,63.8343 78.5,63.5C 78.2865,65.1439 78.6198,66.6439 79.5,68C 73.8658,68.6341 73.5325,69.1341 78.5,69.5C 76.3926,70.4682 74.0593,70.8016 71.5,70.5C 70.0697,69.4625 68.403,68.7959 66.5,68.5C 63.8333,66.8333 61.1667,65.1667 58.5,63.5C 59.1667,60.8333 59.8333,58.1667 60.5,55.5 Z"/></g>
<g><path style="opacity:1" fill="#808080" d="M 28.5,65.5 C 35.436,64.1454 40.7693,66.3121 44.5,72C 43.3774,73.0437 42.0441,73.7104 40.5,74C 41.4123,76.2508 42.4123,78.4175 43.5,80.5C 39.5384,78.2054 36.2051,75.2054 33.5,71.5C 31.8333,70.1667 30.1667,68.8333 28.5,67.5C 28.5,66.8333 28.5,66.1667 28.5,65.5 Z"/></g>
<g><path style="opacity:0.004" fill="#808080" d="M 83.5,68.5 C 84.8333,69.1667 84.8333,69.1667 83.5,68.5 Z"/></g>
<g><path style="opacity:0.998" fill="#808080" d="M 67.5,70.5 C 68.8333,70.5 70.1667,70.5 71.5,70.5C 74.0593,70.8016 76.3926,70.4682 78.5,69.5C 79.5,69.5 80.5,69.5 81.5,69.5C 81.5,69.8333 81.5,70.1667 81.5,70.5C 80.5084,70.3284 79.8417,70.6618 79.5,71.5C 79.1667,71.5 78.8333,71.5 78.5,71.5C 73.6267,71.7657 68.96,72.9324 64.5,75C 58.5092,75.4995 52.5092,75.6662 46.5,75.5C 47.0893,73.6023 47.256,71.6023 47,69.5C 53.69,71.8223 60.5233,72.1556 67.5,70.5 Z"/></g>
<g><path style="opacity:0.999" fill="#808080" d="M 36.5,63.5 C 46.28,68.6418 56.6133,70.9752 67.5,70.5C 60.5233,72.1556 53.69,71.8223 47,69.5C 47.256,71.6023 47.0893,73.6023 46.5,75.5C 45.1667,75.8333 45.1667,76.1667 46.5,76.5C 47.0545,80.0122 46.3878,83.0122 44.5,85.5C 43.6993,83.9582 43.366,82.2915 43.5,80.5C 42.4123,78.4175 41.4123,76.2508 40.5,74C 42.0441,73.7104 43.3774,73.0437 44.5,72C 40.7693,66.3121 35.436,64.1454 28.5,65.5C 28.5,65.1667 28.5,64.8333 28.5,64.5C 31.3854,64.8064 34.0521,64.4731 36.5,63.5 Z"/></g>
<g><path style="opacity:0.012" fill="#808080" d="M 82.5,69.5 C 82.8333,69.5 83.1667,69.5 83.5,69.5C 83.3147,70.1701 82.9813,70.1701 82.5,69.5 Z"/></g>
<g><path style="opacity:0.008" fill="#808080" d="M 81.5,70.5 C 81.8333,70.5 82.1667,70.5 82.5,70.5C 82.3147,71.1701 81.9813,71.1701 81.5,70.5 Z"/></g>
<g><path style="opacity:0.008" fill="#808080" d="M 79.5,72.5 C 79.5,72.1667 79.5,71.8333 79.5,71.5C 80.1667,71.5 80.8333,71.5 81.5,71.5C 81.1583,72.3382 80.4916,72.6716 79.5,72.5 Z"/></g>
<g><path style="opacity:0.008" fill="#808080" d="M 20.5,75.5 C 19.4265,74.7494 19.2599,73.7494 20,72.5C 20.4828,73.448 20.6495,74.448 20.5,75.5 Z"/></g>
<g><path style="opacity:0.012" fill="#808080" d="M 75.5,74.5 C 75.5,74.1667 75.5,73.8333 75.5,73.5C 76.1667,73.5 76.8333,73.5 77.5,73.5C 77.1583,74.3382 76.4916,74.6716 75.5,74.5 Z"/></g>
<g><path style="opacity:0.012" fill="#808080" d="M 73.5,75.5 C 73.5,75.1667 73.5,74.8333 73.5,74.5C 74.1667,74.5 74.8333,74.5 75.5,74.5C 75.1583,75.3382 74.4916,75.6716 73.5,75.5 Z"/></g>
<g><path style="opacity:0.916" fill="#808080" d="M 78.5,71.5 C 78.5,72.1667 78.8333,72.5 79.5,72.5C 79.1583,73.3382 78.4916,73.6716 77.5,73.5C 76.8333,72.1667 76.1667,72.1667 75.5,73.5C 74.5084,73.3284 73.8417,73.6618 73.5,74.5C 72.209,74.2627 71.209,74.596 70.5,75.5C 69.209,75.2627 68.209,75.596 67.5,76.5C 65.5853,76.2155 63.9187,76.5489 62.5,77.5C 58.8333,77.5 55.1667,77.5 51.5,77.5C 50.0813,76.5489 48.4147,76.2155 46.5,76.5C 46.5,76.1667 46.5,75.8333 46.5,75.5C 52.5092,75.6662 58.5092,75.4995 64.5,75C 68.96,72.9324 73.6267,71.7657 78.5,71.5 Z"/></g>
<g><path style="opacity:0.008" fill="#808080" d="M 70.5,76.5 C 70.5,76.1667 70.5,75.8333 70.5,75.5C 71.5,75.5 72.5,75.5 73.5,75.5C 72.791,76.404 71.791,76.7373 70.5,76.5 Z"/></g>
<g><path style="opacity:1" fill="#808080" d="M 28.5,67.5 C 30.1667,68.8333 31.8333,70.1667 33.5,71.5C 34.6885,74.8828 36.3551,78.0494 38.5,81C 36.5,81.3333 34.5,81.6667 32.5,82C 31.1667,82.6667 31.1667,83.3333 32.5,84C 28.9743,85.3368 25.3076,85.8368 21.5,85.5C 19.6565,83.7211 18.9898,81.3878 19.5,78.5C 19.8333,78.5 20.1667,78.5 20.5,78.5C 20.5,79.1667 20.5,79.8333 20.5,80.5C 31.9703,83.7977 34.637,80.131 28.5,69.5C 28.5,68.8333 28.5,68.1667 28.5,67.5 Z"/></g>
<g><path style="opacity:0.016" fill="#808080" d="M 67.5,77.5 C 67.5,77.1667 67.5,76.8333 67.5,76.5C 68.5,76.5 69.5,76.5 70.5,76.5C 69.791,77.404 68.791,77.7373 67.5,77.5 Z"/></g>
<g><path style="opacity:0.012" fill="#808080" d="M 19.5,78.5 C 19.1667,78.5 18.8333,78.5 18.5,78.5C 18.8333,75.8333 19.1667,75.8333 19.5,78.5 Z"/></g>
<g><path style="opacity:0.012" fill="#808080" d="M 51.5,77.5 C 50.791,78.404 49.791,78.7373 48.5,78.5C 47.9553,82.1716 47.6219,81.8383 47.5,77.5C 48.8333,77.5 50.1667,77.5 51.5,77.5 Z"/></g>
<g><path style="opacity:0.012" fill="#808080" d="M 62.5,77.5 C 64.1667,77.5 65.8333,77.5 67.5,77.5C 65.8333,78.8333 64.1667,78.8333 62.5,77.5 Z"/></g>
<g><path style="opacity:0.984" fill="#808080" d="M 25.5,64.5 C 25.8333,64.5 26.1667,64.5 26.5,64.5C 27.1667,65.5 27.8333,66.5 28.5,67.5C 28.5,68.1667 28.5,68.8333 28.5,69.5C 27.2101,70.0577 26.3768,71.0577 26,72.5C 25.4888,74.8782 24.8221,77.2115 24,79.5C 22.9887,80.3366 21.8221,80.67 20.5,80.5C 20.5,79.8333 20.5,79.1667 20.5,78.5C 20.5,77.5 20.5,76.5 20.5,75.5C 22.01,72.3173 23.3433,68.984 24.5,65.5C 25.1667,65.5 25.5,65.1667 25.5,64.5 Z"/></g>
<g><path style="opacity:1" fill="#808080" d="M 28.5,69.5 C 34.637,80.131 31.9703,83.7977 20.5,80.5C 21.8221,80.67 22.9887,80.3366 24,79.5C 24.8221,77.2115 25.4888,74.8782 26,72.5C 26.3768,71.0577 27.2101,70.0577 28.5,69.5 Z"/></g>
<g><path style="opacity:0.004" fill="#808080" d="M 54.5,79.5 C 56.2884,78.3775 58.2884,78.2109 60.5,79C 58.5273,79.4955 56.5273,79.6621 54.5,79.5 Z"/></g>
<g><path style="opacity:0.012" fill="#808080" d="M 18.5,78.5 C 18.6633,80.8568 18.4966,83.1902 18,85.5C 17.2042,82.9615 17.3709,80.6282 18.5,78.5 Z"/></g>
<g><path style="opacity:0.996" fill="#808080" d="M 33.5,71.5 C 36.2051,75.2054 39.5384,78.2054 43.5,80.5C 43.366,82.2915 43.6993,83.9582 44.5,85.5C 44.5,85.8333 44.5,86.1667 44.5,86.5C 36.8333,86.5 29.1667,86.5 21.5,86.5C 21.5,86.1667 21.5,85.8333 21.5,85.5C 25.3076,85.8368 28.9743,85.3368 32.5,84C 31.1667,83.3333 31.1667,82.6667 32.5,82C 34.5,81.6667 36.5,81.3333 38.5,81C 36.3551,78.0494 34.6885,74.8828 33.5,71.5 Z"/></g>
<g><path style="opacity:0.004" fill="#808080" d="M 47.5,83.5 C 48.525,83.8966 48.6917,84.5632 48,85.5C 47.5357,84.9056 47.369,84.2389 47.5,83.5 Z"/></g>
<g><path style="opacity:0.004" fill="#808080" d="M 21.5,86.5 C 21.1034,87.525 20.4368,87.6917 19.5,87C 20.0944,86.5357 20.7611,86.369 21.5,86.5 Z"/></g>
<g><path style="opacity:0.004" fill="#808080" d="M 44.5,86.5 C 45.2389,86.369 45.9056,86.5357 46.5,87C 45.5632,87.6917 44.8966,87.525 44.5,86.5 Z"/></g>
<g><path style="opacity:0.01" fill="#808080" d="M 22.5,88.5 C 29.3209,87.3454 36.3209,87.1787 43.5,88C 36.5079,88.4996 29.5079,88.6663 22.5,88.5 Z"/></g>
</svg>
